/* XPM */
static char *e60086d8ad9a4421ab622820cf24f3e92TFm2SLAbghmbgGV[] = {
/* columns rows colors chars-per-pixel */
"60 60 5 1 ",
"  c None",
". c #AF8428",
"X c #FD9631",
"o c #FDBE39",
"O c #FEE854",
/* pixels */
"                                                            ",
"                                                            ",
"                                                            ",
"                                                            ",
"                                                            ",
"                                                            ",
"                                                            ",
"                                                            ",
"                                                            ",
"                                                            ",
"                                                            ",
"                                                            ",
"                                                            ",
"                                                            ",
"                                                            ",
"                                                            ",
"                          .........                         ",
"                          .........                         ",
"                       ...XXXXXXXXX...                      ",
"                     ..OOooooooooooXXX..                    ",
"                     ..OOooooooooooXXX..                    ",
"                    .OOoooooOOXoooooooXX.                   ",
"                    .OOoooooOOXoooooooXX.                   ",
"                    .oooooooOOXoooooooXX.                   ",
"                  ..ooooooooOOXoooooooooX..                 ",
"                  ..ooooooooOOXoooooooooX..                 ",
"                  ..ooooooooOOXoooooooooX..                 ",
"                  ..ooooooooOOXoooooooooX..                 ",
"                  ..OoooooooOOXoooooooooX..                 ",
"                  ..OoooooooOOXoooooooooX..                 ",
"                  ..OoooooooOOXoooooooooX..                 ",
"                    .oooooooOOXoooooooXX.                   ",
"                    .XXoooooOOXoooooooXX.                   ",
"                    .XXoooooOOXoooooooXX.                   ",
"                     ..XXXoooooooooXXX..                    ",
"                     ..XXXoooooooooXXX..                    ",
"                       ...XXXXXXXXX...                      ",
"                          .........                         ",
"                          .........                         ",
"                                                            ",
"                                                            ",
"                                                            ",
"                                                            ",
"                                                            ",
"                                                            ",
"                                                            ",
"                                                            ",
"                                                            ",
"                                                            ",
"                                                            ",
"                                                            ",
"                                                            ",
"                                                            ",
"                                                            ",
"                                                            ",
"                                                            ",
"                                                            ",
"                                                            ",
"                                                            ",
"                                                            "
};
