/* XPM */
static char * exit_xpm[] = {
"64 64 13 1",
" 	c None",
".	c #3A3A50",
"+	c #46465E",
"@	c #B35E3F",
"#	c #CA8854",
"$	c #AB4A36",
"%	c #B5CDCF",
"&	c #FFFFFF",
"*	c #565972",
"=	c #C4DAE8",
"-	c #E0B870",
";	c #A13A30",
">	c #B5754D",
"                                                                ",
"                                                                ",
"                                                                ",
"                                                                ",
"                                                                ",
"                                                                ",
"                                                                ",
"                                                                ",
"                ....++++++++++++++++++++++++++++                ",
"                ....++++++++++++++++++++++++++++                ",
"                @@@@############################                ",
"                @@@@############################                ",
"                @@@@############################                ",
"                @@@@############################                ",
"                ....++++++++++++++++++++++++++++                ",
"                ....++++++++++++++++++++++++++++                ",
"                $$$$@@@@@@@@@@@@@@@@@@@@@@@@@@@@                ",
"                $$$$@@@@@@@@@@@@@@@@@@@@@@@@@@@@                ",
"                $$$$@@@@@@@@@@@@@@@@@@@@@@@@@@@@                ",
"                $$$$@@@@@@@@@@@@@@@@@@@@@@@@@@@@                ",
"                $$$$......................++@@@@                ",
"                $$$$......................++@@@@                ",
"                $$$$..%%%%%%%%&&%%%%%%%%%%**@@@@                ",
"                $$$$..%%%%%%%%&&%%%%%%%%%%**@@@@                ",
"                $$$$..%%========&&========**@@@@                ",
"                $$$$..%%========&&========**@@@@                ",
"                $$$$..&&==========&&======**@@@@                ",
"                $$$$..&&==========&&======**@@@@                ",
"                $$$$..&&&&==========&&====**@@@@                ",
"                $$$$..&&&&==========&&====**@@@@                ",
"                $$$$..%%&&&&==========&&==**@@@@                ",
"                $$$$..%%&&&&==========&&==**@@@@                ",
"                $$$$..%%%%&&&&==========&&**@@@@                ",
"                $$$$..%%%%&&&&==========&&**@@@@                ",
"                $$$$..%%==%%&&&&==========**@@@@                ",
"                $$$$..%%==%%&&&&==========**@@@@                ",
"                $$$$..%%====%%&&&&========**@@@@                ",
"                $$$$..%%====%%&&&&========**@@@@                ",
"                $$$$++**********************@@@@                ",
"                $$$$++**********************@@@@                ",
"                $$$$@@@@@@@@@@@@@@@@@@@@@@@@@@@@                ",
"                $$$$@@@@@@@@@@@@@@@@@@@@@@@@@@@@                ",
"                $$$$@@@@@@@@@@@@@@@@@@@@@@@@@@@@                ",
"                $$$$@@@@@@@@@@@@@@@@@@@@@@@@@@@@                ",
"                $$$$@@@@@@@@@@@@@@@@@@@@@@--;;@@                ",
"                $$$$@@@@@@@@@@@@@@@@@@@@@@--;;@@                ",
"                $$$$@@@@@@@@@@@@@@@@@@@@@@>>;;@@                ",
"                $$$$@@@@@@@@@@@@@@@@@@@@@@>>;;@@                ",
"                $$$$@@@@@@@@@@@@@@@@@@@@@@@@@@@@                ",
"                $$$$@@@@@@@@@@@@@@@@@@@@@@@@@@@@                ",
"                $$$$@@@@@@@@@@@@@@@@@@@@@@@@@@@@                ",
"                $$$$@@@@@@@@@@@@@@@@@@@@@@@@@@@@                ",
"                $$$$@@@@@@@@@@@@@@@@@@@@@@@@@@@@                ",
"                $$$$@@@@@@@@@@@@@@@@@@@@@@@@@@@@                ",
"                $$$$@@@@@@@@@@@@@@@@@@@@@@@@@@@@                ",
"                $$$$@@@@@@@@@@@@@@@@@@@@@@@@@@@@                ",
"                $$$$@@@@@@@@@@@@@@@@@@@@@@@@@@@@                ",
"                $$$$@@@@@@@@@@@@@@@@@@@@@@@@@@@@                ",
"                $$$$@@@@@@@@@@@@@@@@@@@@@@@@@@@@                ",
"                $$$$@@@@@@@@@@@@@@@@@@@@@@@@@@@@                ",
"                ;;;;;;;;;;;;;;;;;;;;;;;;;;;;;;;;                ",
"                ;;;;;;;;;;;;;;;;;;;;;;;;;;;;;;;;                ",
"                ................................                ",
"                ................................                "};
