/* XPM */
static char * exit_xpm[] = {
"60 60 44 1",
" 	c None",
".	c #000000",
"+	c #FFBA3E",
"@	c #FF2945",
"#	c #FF7337",
"$	c #00B8C0",
"%	c #214594",
"&	c #0F39B5",
"*	c #0A3A42",
"=	c #EF0080",
"-	c #FF008C",
";	c #FF1094",
">	c #390E0D",
",	c #FF328B",
"'	c #FF528D",
")	c #FF398C",
"!	c #2D0C0A",
"~	c #F40083",
"{	c #F10082",
"]	c #E50077",
"^	c #FFFFFF",
"/	c #FF7A8F",
"(	c #E1006E",
"_	c #FF1797",
":	c #FF1B95",
"<	c #FF228F",
"[	c #FF278C",
"}	c #0D4A54",
"|	c #04171A",
"1	c #B30546",
"2	c #C10652",
"3	c #EC007E",
"4	c #FF1597",
"5	c #FF1293",
"6	c #FB0086",
"7	c #281C1F",
"8	c #390808",
"9	c #FB0088",
"0	c #960E40",
"a	c #2A497C",
"b	c #960835",
"c	c #0C464F",
"d	c #082F35",
"e	c #D025D9",
"                                                            ",
"                                                            ",
"                                                            ",
"           ............................................     ",
"           ............................................     ",
"         ..+++++++++++++++++++++++++++..@@@@@@@@@@@@@....   ",
"         ..+++++++++++++++++++++++++++..@@@@@@@@@@@@@....   ",
"         ..+++++++++++++++++++++++++++..@@@@@@@@@@@@@@@..   ",
"         ..+++++++++++++++++++++++++++..@@@@@@@@@@@@@@@..   ",
"         ..+++++++++++++++++++++++++++..@@@@@@@@@@@@@@@..   ",
"         ..+++++++++++++++++++++++++++..@@@@@@@@@@@@@@@..   ",
"         ..+++++++++++++++++++++++++++..@@@@@@@@@@@@@@@..   ",
"           ......................................@@@@@@..   ",
"           ......................................@@@@@@..   ",
"             ..################################..@@@@@@..   ",
"             ..#######..................#######..@@@@@@..   ",
"             ..#######..................#######..@@@@@@..   ",
"             ..#####..$$$$$$$$$$$$$$$$$$..#####..@@@@@@..   ",
"             ..#####..$$$$$...%$...&$$$$..#####..@@@@@@..   ",
"             ..#####..$$$*.=-;>.,')!.$$$..#####..@@@@@@..   ",
"             ..#####..$$$*.=~;{]'^/!.$$$..#####..@@@@@@..   ",
"             ..#####..$$$*.(=-_:<<[!.$$$..#####..@@@@@@..   ",
"             ..#####..$$$}|123=4:567|$$$..#####..@@@@@@..   ",
"             ..#####..$$$$$.8(==90.&$$$$..#####..@@@@@@..   ",
"             ..#####..$$$$$$a.b=.c$$$$$$..#####..@@@@@@..   ",
"             ..#####..$$$$$$$$d.$$$$$$$$..#####..@@@@@@..   ",
"             ..#####..$$$$$$$$$$$$$$$$$$..#####..@@@@@@..   ",
"             ..#######..................#######..@@@@@@..   ",
"             ..#######..................#######..@@@@@@..   ",
"             ..################################..@@@@@@..   ",
"             ..################################..@@@@@@..   ",
"             ......................................@@@@..   ",
"           ..ee...ee..ee..ee..ee..ee..ee..eee..ee..@@@@..   ",
"           ..ee...ee..ee..ee..ee..ee..ee..eee..ee..@@@@..   ",
"         ..ee..eee..ee..ee..ee..ee..ee..ee...ee....@@@@..   ",
"         ..ee..eee..ee..ee..ee..ee..ee..ee...ee....@@@@..   ",
"       ..ee..ee...ee..ee..ee..ee..ee..ee..eee....@@@@@@..   ",
"       ..ee..ee...ee..ee..ee..ee..ee..ee..eee....@@@@@@..   ",
"     ..ee..ee..eee..ee..ee..ee..ee..ee..ee.....@@@@@@@@..   ",
"   ..ee..ee..ee...ee..ee..ee..ee..ee..ee.....@@@@@@@@@@..   ",
"   ..ee..ee..ee...ee..ee..ee..ee..ee..ee.....@@@@@@@@@@..   ",
"   .......................................@@@@@@@@@@@@@..   ",
"   .......................................@@@@@@@@@@@@@..   ",
"   ..#################################..@@@@@@@@@@@@@@@..   ",
"   ..##..#########################..##..@@@@@@@@@@@@@@@..   ",
"   ..##..#########################..##..@@@@@@@@@@@@@@@..   ",
"   ..###################....##########..@@@@@@@@@@@@@@@..   ",
"   ..###################....##########..@@@@@@@@@@@@@@@..   ",
"   ..#################################..@@@@@@@@@@@@@@@..   ",
"   ..#################........########..@@@@@@@@@@@@@@@..   ",
"   ..#################........########..@@@@@@@@@@@@@@@..   ",
"   ..#################################..@@@@@@@@@@@@@@@..   ",
"   ..#################################..@@@@@@@@@@@@@@@..   ",
"   ..##..###############....######..##..@@@@@@@@@@@@@@@..   ",
"   ..##..###############....######..##..@@@@@@@@@@@@@@@..   ",
"   ..#################################..@@@@@@@@@@@@@@@..   ",
"   ......................................................   ",
"   ......................................................   ",
"                                                            ",
"                                                            "};
