/* XPM */
static char *_edd673ae8d449efe5de499f99274dfa7tePVDnAL30QfCiZ[] = {
/* columns rows colors chars-per-pixel */
"60 60 4 1 ",
"  c #E91E63",
". c #FF9800",
"X c #7B1FA2",
"o c #00BCD4",
/* pixels */
"XXXXXXXXXXXXXXXXXXXXXXXXXXXXXXXXXXXXXXXXXXXXXXXXXXXXXXXXXXXX",
"XXXXXXXXXXXXXXXXXXXXXXXXXXXXXXXXXXXXXXXXXXXXXXXXXXXXXXXXXXXX",
"XXXXXXXXXXXXXXXXXXXXXXXXXXXXXXXXXXXXXXXXXXX   XXXXXXXXXXXXXX",
"XXXXXXXXXXXXXXXXXXXXXXXXXXXXXXXXXXXXXXXXXXX    XXXXXXXXXXXXX",
"XXXooXXXXXXXXXXXXXXXXXXXXXXXXXXXXXXXXXXXXX      XXXXXXXXXXXX",
"XXoooXXXXXXXXXXXXXXXXXXXXXXXXXXXXXXXXXXXXX  XX   XXXXXXXXXXX",
"XXoooXXXXXXXXXXXXXXXXXXXXXXXXXXXXXXXXXXXX   XX    XXXXXXXXXX",
"XXoooooooXXXXXXXXXXXXXXXXXXXXXXXXXXXXXXXX  XXXX   XXXXXXXXXX",
"XXoooooooXXXXXXXX......XXXXXXXXXXXXXXXXX   XXXXX   XXXXXXXXX",
"XXXXXXooXXXXXXX..........XXXXXXXXXXXXXXX  XXXXXXX   XXXXXXXX",
"XXXXXXooXXXXX.....XXXX.....XXXXXXXXXXXX   XXXXXXX    XXXXXXX",
"XXXXXXooooooo...XXXXXXXX....XXXXXXXXXXX  XXXXXXXXX    XXXXXX",
"XXXXXXooooooo.XXXXXXXXXXXX..XXXXXXXXXX   X            XXXXXX",
"XXXXXXooooX...XXXXXXXXXXXX...XXXXXXXXX               XXXXXXX",
"XXXXXXXXXXX..XXXXXXXXXXXXXX..XXXXXXXXX     XXXXXXXXXXXXXXXXX",
"XXXXXXXXXX...XXXXXXXXXXXXXX...XXXXXXXXXXXXXXXXXXXXXXXXXXXXXX",
"XXXXXXXXXX..XXXXXXXXXXXXXXXX..XXXXXXXXXXXXXXXXXXXXXXXXXXXXXX",
"XXXXXXXXXX..XXXXXXXXXXXXXXXX..XXXXXXXXXXXXXXXXXXXXXXXXXXXXXX",
"XXXXXXXXXX..XXXXXXXXXXXXXXXX..XXXXXXXXXXXXXXXXXXXXXXXXXXXXXX",
"XXXXXXXXXX..XXXXXXXXXXXXXXXX..XXXXXXXXXXXXXXXXXXXXXXXXXXXXXX",
"XXXXXXXXXX...XXXXXXXXXXXXXX...XXXXXXXXXXXXXXXXXXXXXXXXXXXXXX",
"XXXXXXXXXXX..XXXXXXXXXXXXXX..XXXXXXXXXXXXXXXXXXXXXXXXXXXXXXX",
"XXXXXXXXXXX...XXXXXXXXXXXX...XXXXXXXXXXXXXXXooXXXXXXXXXXXXXX",
"XXXXXXXXXXXX..XXXXXXXXXXXX..XXXXXXXXXXXXXXXXooXXXXXXXXXXXXXX",
"XXXXXXXXXXXX....XXXXXXXX....XXXXXXXXXXXXXXXXoooooXXXXXXXXXXX",
"XXXXXXXXXXXXX.....XXXX.....XXXXXXXXXXXXXXXXXooooooXXXXXXXXXX",
"XXXXXXXXXXXXXXX..........XXXXXXXXXXXXXXXXXXXXXXoooXXXXXXXXXX",
"XXXXXXXXXXXXXXXXX......XXXXXXXXXXXXXXXXXXXXXXXXXooXXXXXXXXXX",
"XXXXXXXXXXXXXXXXXXXXXXXXXXXXXXXXXXXXXXXXXXXXXXXXooooooXXXXXX",
"XXXXXXXXXXXXXXXXXXXXXXXXXXXXXXXXXXXXXXXXXXXXXXXXoooooooXXXXX",
"XXXXXXXXXXXXXXXXXXXXXXXXXXXXXXXXXXXXXXXXXXXXXXXXXXXXoooXXXXX",
"XXXXXXXXXXXXXXXXXXXXXXXXXXXXXXXXXXXXXXXXXXXXXXXXXXXXoooXXXXX",
"XXXXXXXXXXXXXXXXXXXXXXXXXXXXXXXXXXXXXXXXXXXXXXXXXXXXXXXXXXXX",
"XXXXXXXXXXXXXXXXXXXXXXXXXXXXXXXXXXXXXXXXXXXXXXXXXXXXXXXXXXXX",
"XXXXXXXXXXXXXXXXXXXXXXXXXXXXXXXXXXXXXXXXXXXXXXXXXXXXXXXXXXXX",
"XXXXXXXXXXXXXXXXXX   XXXXXXXXXXXXXXXXXXXXXXXXXXXXXXXXXXXXXXX",
"XXXXXXXXXXXXXXX       XXXXXXXXXXXXXXXXXXXXXXXXXXXXXXXXXXXXXX",
"XXXXXXXXXXXXXX        XXXXXXXXXXXXXXXXXXXXXXXXXXXXXXXXXXXXXX",
"XXXXXXXXXXX      XXX  XXXXXXXXXXXXXXXXXXXXXXXXXXXXXXXXXXXXXX",
"XXXXXXXXXX     XXXXX  XXXXXXXXXXXXXXXXXXXXXXXXXXXXXXXooXXXXX",
"XXXXXXXXXX    XXXXXX  XXXXXXXXXXXXXXXXXXXXXXXXXXXXXXXooXXXXX",
"XXXXXXXXXXX    XXXXX  XXXXXXXXXXXXXXXXXX......XXXXXXXooXXXXX",
"XXXXXXXXXXXX     XXX  XXXXXXXXXXXXXXXX..........XXXXXooXXXXX",
"XXXXXXXXXXXXX     XX  XXXXXXXXXXXXXXX....XXXX....XoooooXXXXX",
"XXXXXXXXXXXXXXX    X  XXXXXXXXXXXXXX...XXXXXXXX...oooooXXXXX",
"XXXXXXXXXXXXXXXX      XXXXXXXXXXXXXX..XXXXXXXXXX..ooXXXXXXXX",
"XXXXXXXXXXXXXXXXXX    XXXXXXXXXXXXX...XXXXXXXXXX..ooXXXXXXXX",
"XXXXXXXXXXooXXXXXXXX  XXXXXXXXXXXXX..XXXXXXXXXXXX.ooXXXXXXXX",
"XXXXXXXXXXooooXXXXXXXXXXXXXXXXXXXXX..XXXXXXXXXoooooooXXXXXXX",
"XXXXXXXXXooooooooXXXXXXXXXXXXXXXXXX..XXXXXXXXXoooooooXXXXXXX",
"XXXXoooXXooXooooooooXXXXXXXXXXXXXXX..XXXXXXXXXXXX.oooXXXXXXX",
"XXXXoooooooXXXXXooooXXXXXXXXXXXXXXX...XXXXXXXXXX...XXXXXXXXX",
"XXXXoooooooXXXXXXXooXXXXXXXXXXXXXXXX..XXXXXXXXXX..XXXXXXXXXX",
"XXXXXooXoooXXXXXXXXXXXXXXXXXXXXXXXXX...XXXXXXXX...XXXXXXXXXX",
"XXXXXooXXXXXXXXXXXXXXXXXXXXXXXXXXXXXX....XXXX....XXXXXXXXXXX",
"XXXXXooXXXXXXXXXXXXXXXXXXXXXXXXXXXXXXX..........XXXXXXXXXXXX",
"XXXXXooXXXXXXXXXXXXXXXXXXXXXXXXXXXXXXXXX......XXXXXXXXXXXXXX",
"XXXXXXXXXXXXXXXXXXXXXXXXXXXXXXXXXXXXXXXXXXXXXXXXXXXXXXXXXXXX",
"XXXXXXXXXXXXXXXXXXXXXXXXXXXXXXXXXXXXXXXXXXXXXXXXXXXXXXXXXXXX",
"XXXXXXXXXXXXXXXXXXXXXXXXXXXXXXXXXXXXXXXXXXXXXXXXXXXXXXXXXXXX"
};
