/* XPM */
static char * ground_xpm[] = {
"64 64 16 1",
" 	c #B19B7F",
".	c #B1997B",
"+	c #804E42",
"@	c #712D29",
"#	c #B09C7A",
"$	c #B5A179",
"%	c #805442",
"&	c #BFA183",
"*	c #B49A82",
"=	c #B9A181",
"-	c #BEA480",
";	c #BAA086",
">	c #BA9C82",
",	c #B69C7A",
"'	c #AC967A",
")	c #835F4F",
"  ....++@@@@@@++##$$$$%%@@@@@@++  ....++@@@@@@++##$$$$%%@@@@@@++",
"  ....++@@@@@@++##$$$$%%@@@@@@++  ....++@@@@@@++##$$$$%%@@@@@@++",
"&&****++==----++--====++;;>>>>++&&****++==----++--====++;;>>>>++",
"&&****++==----++--====++;;>>>>++&&****++==----++--====++;;>>>>++",
",,''''))##$$$$))$$####))  '''')),,''''))##$$$$))$$####))  ''''))",
",,''''))##$$$$))$$####))  '''')),,''''))##$$$$))$$####))  ''''))",
";;**>>))&&****))==----))&&****));;**>>))&&****))==----))&&****))",
";;**>>))&&****))==----))&&****));;**>>))&&****))==----))&&****))",
",,..''))  ....))$$####))  ....)),,..''))  ....))$$####))  ....))",
",,..''))  ....))$$####))  ....)),,..''))  ....))$$####))  ....))",
";;**>>))&&>>**))==----))&&****));;**>>))&&>>**))==----))&&****))",
";;**>>))&&>>**))==----))&&****));;**>>))&&>>**))==----))&&****))",
"  ''..)),,..''))##$$$$)),,''..))  ''..)),,..''))##$$$$)),,''..))",
"  ''..)),,..''))##$$$$)),,''..))  ''..)),,..''))##$$$$)),,''..))",
"&&>>**));;**>>))--====));;>>>>))&&>>**));;**>>))--====));;>>>>))",
"&&>>**));;**>>))--====));;>>>>))&&>>**));;**>>))--====));;>>>>))",
"  ''..)),,..''))  ''..)),,''''))  ''..)),,..''))  ''..)),,''''))",
"  ''..)),,..''))  ''..)),,''''))  ''..)),,..''))  ''..)),,''''))",
"&&>>**++;;**>>++&&>>**++;;>>>>++&&>>**++;;**>>++&&>>**++;;>>>>++",
"&&>>**++;;**>>++&&>>**++;;>>>>++&&>>**++;;**>>++&&>>**++;;>>>>++",
",,..''++  ''..++,,..''++  ''..++,,..''++  ''..++,,..''++  ''..++",
",,..''++  ''..++,,..''++  ''..++,,..''++  ''..++,,..''++  ''..++",
"@@@@@@++&&>>**++@@@@@@++&&>>**++@@@@@@++&&>>**++@@@@@@++&&>>**++",
"@@@@@@++&&>>**++@@@@@@++&&>>**++@@@@@@++&&>>**++@@@@@@++&&>>**++",
",,..''++  ''..++,,..''++  ''..++,,..''++  ''..++,,..''++  ''..++",
",,..''++  ''..++,,..''++  ''..++,,..''++  ''..++,,..''++  ''..++",
";;**>>++&&>>**++;;**>>++&&>>**++;;**>>++&&>>**++;;**>>++&&>>**++",
";;**>>++&&>>**++;;**>>++&&>>**++;;**>>++&&>>**++;;**>>++&&>>**++",
",,''..++$$$$##++  ''..++,,..''++,,''..++$$$$##++  ''..++,,..''++",
",,''..++$$$$##++  ''..++,,..''++,,''..++$$$$##++  ''..++,,..''++",
";;>>**++====--++----==++;;**>>++;;>>**++====--++----==++;;**>>++",
";;>>**++====--++----==++;;**>>++;;>>**++====--++----==++;;**>>++",
"  ....++@@@@@@++##$$$$%%@@@@@@++  ....++@@@@@@++##$$$$%%@@@@@@++",
"  ....++@@@@@@++##$$$$%%@@@@@@++  ....++@@@@@@++##$$$$%%@@@@@@++",
"&&****++==----++--====++;;>>>>++&&****++==----++--====++;;>>>>++",
"&&****++==----++--====++;;>>>>++&&****++==----++--====++;;>>>>++",
",,''''))##$$$$))$$####))  '''')),,''''))##$$$$))$$####))  ''''))",
",,''''))##$$$$))$$####))  '''')),,''''))##$$$$))$$####))  ''''))",
";;**>>))&&****))==----))&&****));;**>>))&&****))==----))&&****))",
";;**>>))&&****))==----))&&****));;**>>))&&****))==----))&&****))",
",,..''))  ....))$$####))  ....)),,..''))  ....))$$####))  ....))",
",,..''))  ....))$$####))  ....)),,..''))  ....))$$####))  ....))",
";;**>>))&&>>**))==----))&&****));;**>>))&&>>**))==----))&&****))",
";;**>>))&&>>**))==----))&&****));;**>>))&&>>**))==----))&&****))",
"  ''..)),,..''))##$$$$)),,''..))  ''..)),,..''))##$$$$)),,''..))",
"  ''..)),,..''))##$$$$)),,''..))  ''..)),,..''))##$$$$)),,''..))",
"&&>>**));;**>>))--====));;>>>>))&&>>**));;**>>))--====));;>>>>))",
"&&>>**));;**>>))--====));;>>>>))&&>>**));;**>>))--====));;>>>>))",
"  ''..)),,..''))  ''..)),,''''))  ''..)),,..''))  ''..)),,''''))",
"  ''..)),,..''))  ''..)),,''''))  ''..)),,..''))  ''..)),,''''))",
"&&>>**++;;**>>++&&>>**++;;>>>>++&&>>**++;;**>>++&&>>**++;;>>>>++",
"&&>>**++;;**>>++&&>>**++;;>>>>++&&>>**++;;**>>++&&>>**++;;>>>>++",
",,..''++  ''..++,,..''++  ''..++,,..''++  ''..++,,..''++  ''..++",
",,..''++  ''..++,,..''++  ''..++,,..''++  ''..++,,..''++  ''..++",
"@@@@@@++&&>>**++@@@@@@++&&>>**++@@@@@@++&&>>**++@@@@@@++&&>>**++",
"@@@@@@++&&>>**++@@@@@@++&&>>**++@@@@@@++&&>>**++@@@@@@++&&>>**++",
",,..''++  ''..++,,..''++  ''..++,,..''++  ''..++,,..''++  ''..++",
",,..''++  ''..++,,..''++  ''..++,,..''++  ''..++,,..''++  ''..++",
";;**>>++&&>>**++;;**>>++&&>>**++;;**>>++&&>>**++;;**>>++&&>>**++",
";;**>>++&&>>**++;;**>>++&&>>**++;;**>>++&&>>**++;;**>>++&&>>**++",
",,''..++$$$$##++  ''..++,,..''++,,''..++$$$$##++  ''..++,,..''++",
",,''..++$$$$##++  ''..++,,..''++,,''..++$$$$##++  ''..++,,..''++",
";;>>**++====--++----==++;;**>>++;;>>**++====--++----==++;;**>>++",
";;>>**++====--++----==++;;**>>++;;>>**++====--++----==++;;**>>++"};
