/* XPM */
static char * pnjA3_xpm[] = {
"32 46 17 1",
" 	c None",
".	c #46465E",
"+	c #565972",
"@	c #898171",
"#	c #79746F",
"$	c #706663",
"%	c #5B5655",
"&	c #3A3A50",
"*	c #D2A187",
"=	c #FFB893",
"-	c #F69784",
";	c #D3A38D",
">	c #E07070",
",	c #6C6E85",
"'	c #D8D0E0",
")	c #D93232",
"!	c #A82B2D",
"                                ",
"                                ",
"        ................        ",
"        ................        ",
"      ++@@@@@@@@@@@@##$$..      ",
"      ++@@@@@@@@@@@@##$$..      ",
"    ++@@@@@@@@@@@@####@@$$..    ",
"    ++@@@@@@@@@@@@####@@$$..    ",
"    ..$$%%&&%%&&%%$$##$$##..    ",
"    ..$$%%&&%%&&%%$$##$$##..    ",
"  ..@@%%$$@@$$@@$$##$$@@##$$..  ",
"  ..@@%%$$@@$$@@$$##$$@@##$$..  ",
"  &&##&&##############$$##$$&&  ",
"  &&##&&##############$$##$$&&  ",
"  &&$$%%@@********##@@@@##$$&&  ",
"  &&$$%%@@********##@@@@##$$&&  ",
"  &&$$$$==========##****##$$&&  ",
"  &&$$$$==========##****##$$&&  ",
"  &&$$**======@@##**====**$$&&  ",
"  &&$$**======@@##**====**$$&&  ",
"  ..--====================--..  ",
"  ..--====================--..  ",
"  ..======;;========;;======..  ",
"  ..======;;========;;======..  ",
"    ..--==&&========&&==--..    ",
"    ..--==&&========&&==--..    ",
"    ..-->>>>-------->>>>--..    ",
"    ..-->>>>-------->>>>--..    ",
"  &&++....................++..  ",
"  &&++....................++..  ",
"  &&,,++&&++''))))''++&&++,,..  ",
"  &&,,++&&++''))))''++&&++,,..  ",
"..=='',,..,,..!!!!..,,..,,''==..",
"..=='',,..,,..!!!!..,,..,,''==..",
"..==--&&++............++&&--==..",
"..==--&&++............++&&--==..",
"  ..&&&&,,,,,,..++,,,,,,&&&&..  ",
"  ..&&&&,,,,,,..++,,,,,,&&&&..  ",
"      &&++++&&&&&&&&++++&&      ",
"      &&++++&&&&&&&&++++&&      ",
"      &&&&&&++....++&&&&&&      ",
"      &&&&&&++....++&&&&&&      ",
"      &&,,,,&&    &&,,,,&&      ",
"      &&,,,,&&    &&,,,,&&      ",
"        &&&&        &&&&        ",
"        &&&&        &&&&        "};
