/* XPM */
static char *_0f17e109c9d44ae8035cd4be625c7d79Ue0wnsY04X7mbac[] = {
/* columns rows colors chars-per-pixel */
"60 60 64 1 ",
"  c None",
". c #010300",
"X c #3E2723",
"o c gray23",
"O c #481C00",
"+ c #4B2500",
"@ c #502600",
"# c #403E3C",
"$ c #1F5B38",
"% c #235B26",
"& c #225D29",
"* c #235F2A",
"= c #256027",
"- c #2C672F",
"; c #296930",
": c #2A6C31",
"> c #2C7034",
", c #2E7336",
"< c #2F7536",
"1 c #307637",
"2 c #307737",
"3 c #327939",
"4 c #337C3A",
"5 c #347E3B",
"6 c #357F3C",
"7 c #494949",
"8 c #504D4B",
"9 c #795548",
"0 c #605B5A",
"q c #BF360C",
"w c #E65100",
"e c #EF6C00",
"r c #FF6F00",
"t c #37823E",
"y c #37833E",
"u c #38843F",
"i c #398640",
"p c #3A8942",
"a c #3C8B43",
"s c #3D8E45",
"d c #FFB74D",
"f c #9EE25B",
"g c #A0E45C",
"h c #8CCB71",
"j c #95D276",
"k c #BAFC79",
"l c #F8C47B",
"z c #7986CB",
"x c #8C8F8F",
"c c #ABAEAF",
"v c #FFAB91",
"b c #C0B1B3",
"n c #FFCC80",
"m c #CBFD96",
"M c #B6B6FF",
"N c #F8BBD0",
"B c #B2D1F8",
"V c #CACDCF",
"C c #DCCACD",
"Z c #DADCDF",
"A c #FFCDD2",
"S c #F4E0E3",
"D c #FFEBEE",
"F c #F9FCFF",
/* pixels */
"                                                            ",
"                                                            ",
"                                                            ",
"                                                            ",
"                                                            ",
"                                                            ",
"                                                            ",
"                       dddddddddddddd                       ",
"                       dddddddddddddd                       ",
"                   dddddddnnnnnnnnnnddddd                   ",
"                  ddddddndddddnnnnnddddddd                  ",
"                 dddndnnnnnnndddddddnnndddd                 ",
"                dddnnddddddnddddnnnddnnnnddd                ",
"                ddnnnnnnnndddnnnnddnnnnnnndd                ",
"                ddnddnnnnnnnnnnddddddddddndd                ",
"                ddnnddddddddddddnnnnnnnndndd                ",
"              ddddnnnnnndddnnnnnnnnnnnnddndddd              ",
"              dddnddnnnnnndddddddnnndddnndnddd              ",
"              ddnnnddddnnnnnddnndddddnndddnndd              ",
"             dddnnnnnndddddnnnnnnnnnndddnnnnddd             ",
"         ddddddddddddddddddddddddddddddddddddddddd          ",
"         ddddddddddddddddddddddddddddddddddddddddd          ",
"              ewwwweeeweeDDDDDDDDDeeewwerwweww              ",
"              ewewewewweDDDDDDDDDDDDeewwrewewww             ",
"              eweweewwDDDDDDDDDDDDDDDDeweewewwew            ",
"             werewewweDDDDDDDDDDDDDDDDDewewewwew            ",
"             we@@O+O88888888888888888888O+wewwew            ",
"             ..werewb.F.Z........Vc.......weewrr            ",
"             wewerrwDD..Zx...0DDD.c.F...wewwewwr            ",
"             weeewrwDDD######DDDDC#####Swreweerrr           ",
"            rewrwwrwDDDDDDDDDDDDDDDDDDDDwrrwwrrwr           ",
"            reerrerwDDDNNNNDDDDDDDDNNNNDwwrrwreer           ",
"            rwewrerwDDDDNNDDvDDDDvDDNNDDwwwrwwrwr           ",
"            rwewrwrwADDDDDDDDvvvvDDDDDDAwwwwewrrr           ",
"             weerwrwqADDDDDDDDDDDDDDDDAqwewweerrr           ",
"              werwrwqAADDDDDDDDDDDDDDAAqweewwerr            ",
"              rrrewwqqqAAAAAAAAAAAAAAqqqwweewwrr            ",
"              eereqqqMMBBMMMMMMMMMMBBMMqqqwerrr             ",
"               wewqqqMMBBMMMMMMMMMMBBMMqqqwwrrr             ",
"               rewqMMMMBBMMMMMMMMMMBBMMMMqwrrrr             ",
"                wwqMMMMllMMMMMMMMMMllMMMMqwwrr              ",
"                 AAMMMMllBBBBBBBBBBllMMMMAAw                ",
"                 ADDDMMBBBBBBBBBBBBBBMMDDDAw                ",
"                AADDDBBBBBBBBBBBBBBBBBBDDDAA                ",
"                ADDDDBBBBBBBBBBBBBBBBBBDDDDA                ",
"                ADDDDBBBBBBBBBBBBBBBBBBDDDDA                ",
"                 ADDDBBBBBBBBBBBBBBBBBBDDDA                 ",
"                 AAAABBBBBBBBBBBBBBBBBBAAAA                 ",
"                     BBBBBBBBBBBBBBBBBB  p     p            ",
"                     BBBBBBBBBBBBBBBBBB 4oyaaay76           ",
"                     BBBBBBBBBBBBBBBBBB 4aaaaaaa6           ",
"                     BBBBBBBBBBBBBBBBBB 4ah&a&ja6           ",
"                     BBBBBBB    BBBBBBB 1mmmmmmm3           ",
"                     zzzzzzz    zzzzzzz  fmmmmmg            ",
"                     ADDDDDA    ADDDDDA   =kkk%             ",
"                     ADDDDDA    ADDDDDA  s>&m->s            ",
"                     99DDD99    99DDD99 $i:&m-;u=           ",
"                     99X9X99    99X9X99  5<&m-16            ",
"                     9999999    9999999                     ",
"                     XXXXXXX    XXXXXXX                     "
};
