/* XPM */
static char * vwallR_xpm[] = {
"64 76 3 1",
" 	c None",
".	c #3A3A50",
"+	c #F8F8F8",
"                                                  ..............",
"                                                  ..............",
"                                                  ..++++++++++..",
"                                                  ..++++++++++..",
"                                                  ..++++++++++..",
"                                                  ..++++++++++..",
"                                                  ..++++++++++..",
"                                                  ..++++++++++..",
"                                                  ..++++++++++..",
"                                                  ..++++++++++..",
"                                                  ..............",
"                                                  ..............",
"                                                  ..++++++++++..",
"                                                  ..++++++++++..",
"                                                  ..++++++++++..",
"                                                  ..++++++++++..",
"                                                  ..++++++++++..",
"                                                  ..++++++++++..",
"                                                  ..++++++++++..",
"                                                  ..++++++++++..",
"                                                  ..++++++++++..",
"                                                  ..++++++++++..",
"                                                  ..++++++++++..",
"                                                  ..++++++++++..",
"                                                  ..++++++++++..",
"                                                  ..++++++++++..",
"                                                  ..++++++++++..",
"                                                  ..++++++++++..",
"                                                  ..++++++++++..",
"                                                  ..++++++++++..",
"                                                  ..++++++++++..",
"                                                  ..++++++++++..",
"                                                  ..++++++++++..",
"                                                  ..++++++++++..",
"                                                  ..++++++++++..",
"                                                  ..++++++++++..",
"                                                  ..++++++++++..",
"                                                  ..++++++++++..",
"                                                  ..++++++++++..",
"                                                  ..++++++++++..",
"                                                  ..++++++++++..",
"                                                  ..++++++++++..",
"                                                  ..++++++++++..",
"                                                  ..++++++++++..",
"                                                  ..++++++++++..",
"                                                  ..++++++++++..",
"                                                  ..++++++++++..",
"                                                  ..++++++++++..",
"                                                  ..++++++++++..",
"                                                  ..++++++++++..",
"                                                  ..++++++++++..",
"                                                  ..++++++++++..",
"                                                  ..++++++++++..",
"                                                  ..++++++++++..",
"                                                  ..++++++++++..",
"                                                  ..++++++++++..",
"                                                  ..++++++++++..",
"                                                  ..++++++++++..",
"                                                  ..++++++++++..",
"                                                  ..++++++++++..",
"                                                  ..++++++++++..",
"                                                  ..++++++++++..",
"                                                  ..++++++++++..",
"                                                  ..++++++++++..",
"                                                  ..............",
"                                                  ..............",
"                                                  ..++++++++++..",
"                                                  ..++++++++++..",
"                                                  ..++++++++++..",
"                                                  ..++++++++++..",
"                                                  ..++++++++++..",
"                                                  ..++++++++++..",
"                                                  ..++++++++++..",
"                                                  ..++++++++++..",
"                                                  ..............",
"                                                  .............."};
