/* XPM */
static char * wall_xpm[] = {
"60 60 5 1",
" 	c #9E85BD",
".	c #D473BB",
"+	c #EF23A4",
"@	c #BBACC1",
"#	c #E10186",
" ................++  .................+  .................+ ",
" ................++  .................+  .................+ ",
"@.+++++++++++++++##@@.++++++++++++++++#@@..+++++++++++++++#@",
"@.+++++++++++++++##@@.++++++++++++++++#@@..+++++++++++++++#@",
"@.+++++++++++++++##@@.++++++++++++++++#@@..+++++++++++++++#@",
"@.+++++++++++++++##@@.++++++++++++++++#@@..+++++++++++++++#@",
"@.+++++++++++++++##@@.++++++++++++++++#@@..+++++++++++++++#@",
" +#################  +#################  ++################ ",
"  @@@@@     @@@@@     @@@@@      @@@@@     @@@@@     @@@@@  ",
"  @@@@@     @@@@@     @@@@@      @@@@@     @@@@@     @@@@@  ",
".......++ .................++  .................++ .........",
".......++ .................++  .................++ .........",
"+++++++##@..+++++++++++++++##@@..+++++++++++++++##@..+++++++",
"+++++++##@..+++++++++++++++##@@..+++++++++++++++##@..+++++++",
"+++++++##@..+++++++++++++++##@@..+++++++++++++++##@..+++++++",
"+++++++##@..+++++++++++++++##@@..+++++++++++++++##@..+++++++",
"+++++++##@..+++++++++++++++##@@..+++++++++++++++##@..+++++++",
"######### ++#################  ++################# ++#######",
"  @@@@@     @@@@@     @@@@@      @@@@@     @@@@@     @@@@@  ",
"  @@@@@     @@@@@     @@@@@      @@@@@     @@@@@     @@@@@  ",
" ................++  .................+  .................+ ",
" ................++  .................+  .................+ ",
"@.+++++++++++++++##@@.++++++++++++++++#@@..+++++++++++++++#@",
"@.+++++++++++++++##@@.++++++++++++++++#@@..+++++++++++++++#@",
"@.+++++++++++++++##@@.++++++++++++++++#@@..+++++++++++++++#@",
"@.+++++++++++++++##@@.++++++++++++++++#@@..+++++++++++++++#@",
"@.+++++++++++++++##@@.++++++++++++++++#@@..+++++++++++++++#@",
" +#################  +#################  ++################ ",
"  @@@@@     @@@@@     @@@@@      @@@@@     @@@@@     @@@@@  ",
"  @@@@@     @@@@@     @@@@@      @@@@@     @@@@@     @@@@@  ",
".......++ .................++  .................++ .........",
"+++++++##@..+++++++++++++++##@@..+++++++++++++++##@..+++++++",
"+++++++##@..+++++++++++++++##@@..+++++++++++++++##@..+++++++",
"+++++++##@..+++++++++++++++##@@..+++++++++++++++##@..+++++++",
"+++++++##@..+++++++++++++++##@@..+++++++++++++++##@..+++++++",
"+++++++##@..+++++++++++++++##@@..+++++++++++++++##@..+++++++",
"######### ++#################  ++################# ++#######",
"######### ++#################  ++################# ++#######",
"  @@@@@     @@@@@     @@@@@      @@@@@     @@@@@     @@@@@  ",
"  @@@@@     @@@@@     @@@@@      @@@@@     @@@@@     @@@@@  ",
" ................++  .................+  .................+ ",
"@.+++++++++++++++##@@.++++++++++++++++#@@..+++++++++++++++#@",
"@.+++++++++++++++##@@.++++++++++++++++#@@..+++++++++++++++#@",
"@.+++++++++++++++##@@.++++++++++++++++#@@..+++++++++++++++#@",
"@.+++++++++++++++##@@.++++++++++++++++#@@..+++++++++++++++#@",
"@.+++++++++++++++##@@.++++++++++++++++#@@..+++++++++++++++#@",
" +#################  +#################  ++################ ",
" +#################  +#################  ++################ ",
"  @@@@@     @@@@@     @@@@@      @@@@@     @@@@@     @@@@@  ",
"  @@@@@     @@@@@     @@@@@      @@@@@     @@@@@     @@@@@  ",
".......++ .................++  .................++ .........",
"+++++++##@..+++++++++++++++##@@..+++++++++++++++##@..+++++++",
"+++++++##@..+++++++++++++++##@@..+++++++++++++++##@..+++++++",
"+++++++##@..+++++++++++++++##@@..+++++++++++++++##@..+++++++",
"+++++++##@..+++++++++++++++##@@..+++++++++++++++##@..+++++++",
"+++++++##@..+++++++++++++++##@@..+++++++++++++++##@..+++++++",
"######### ++#################  ++################# ++#######",
"######### ++#################  ++################# ++#######",
"  @@@@@     @@@@@     @@@@@      @@@@@     @@@@@     @@@@@  ",
"  @@@@@     @@@@@     @@@@@      @@@@@     @@@@@     @@@@@  "};
